<svg width="500" height="500" viewBox="0 0 100 100" xmlns="http://www.w3.org/2000/svg">
  <path fill="#f8f8f8" d="M76.68,25.73l-0.61-2.33a0.5,0.5,0,0,0-.8-0.26L73.7,24.39l0.47-4.77a0.5,0.5,0,0,0-.09-0.34l-1.82-2.56a0.49,0.49,0,0,0-.42-0.21,0.5,0.5,0,0,0-.41.23L66.55,24.4l-0.25-.1H66.23l-0.11,0H66l-0.06,0-0.1.06-0.06,0h0L63,27a0.51,0.51,0,0,0-.09.12l-1.18,2.12L55.5,32.57a0.5,0.5,0,0,0,.07.92l4.94,1.68-2,3.73-4.93,2.77L32.63,46.28h0l0,0-0.06,0h0l-4.24,2.38-0.11.08-6.76,6.87L9.89,57.77a0.5,0.5,0,0,0-.21.89l4.88,3.75h0a0.49,0.49,0,0,0,.27.09h10.3a0.49,0.49,0,0,0,.19-0.06l0.06,0,0.06,0,4.37-4.48,1,4.08-4.05,8.84s0,0,0,0a0.47,0.47,0,0,0,0,.06,0.49,0.49,0,0,0,0,.17s0,0,0,0L28,79.59v0a0.46,0.46,0,0,0,0,.05,0.45,0.45,0,0,0,0,.06,0.49,0.49,0,0,0,0,.11l1.38,1.63a0.5,0.5,0,0,0,.38.18H35a0.5,0.5,0,0,0,.43-0.75l-0.87-1.5a0.49,0.49,0,0,0-.24-0.21l-2.32-1-0.11-6,5-6-1.73,4.64s0,0,0,0a0.49,0.49,0,0,0,0,.26s0,0,0,0L38,81.28h0a0.49,0.49,0,0,0,.15.22l0,0,0,0a0.5,0.5,0,0,0,.25.07H44A0.5,0.5,0,0,0,44.45,81L43.7,79.08a0.5,0.5,0,0,0-.25-0.27L40.8,77.55l-1-5,4.37-6.07a0.51,0.51,0,0,0,.06-0.1l1.25-3.08,8.41-.34V78.27a0.52,0.52,0,0,0,0,.16l1,2.88,0,0a0.49,0.49,0,0,0,.16.22h0a0.5,0.5,0,0,0,.29.09h4.5A0.5,0.5,0,0,0,60.33,81l-0.62-1.87a0.5,0.5,0,0,0-.17-0.24l-1.43-1.1V74.33l2.09-8.11,1-1.55-1,3.46a0.53,0.53,0,0,0,0,.06,0.48,0.48,0,0,0,0,.07s0,0,0,0l0.38,10.38a0.5,0.5,0,0,0,.09.27l1.75,2.5,0,0a0.49,0.49,0,0,0,.12.1l0.05,0h0a0.51,0.51,0,0,0,.2,0h5.5a0.5,0.5,0,0,0,.43-0.75l-1-1.75a0.51,0.51,0,0,0-.23-0.21l-2.78-1.22,0.57-4.08L67.7,63l2.25-3.39,3.63-8.88h0v0l0-.07,1.49-8.24a0.48,0.48,0,0,0,0-.07v-8L76.59,29a0.5,0.5,0,0,0-.29-0.6L76,28.28,76.67,26A0.5,0.5,0,0,0,76.68,25.73Zm-12.92,2,2.32-2.22,8,9v7l-12.33-6.8,0.8-4.81ZM57,32.92l4.46-2.36-0.61,3.67Zm4.44,2.66,12.62,7-1.29,7.08L59.5,39.13Zm5.3,27-5.16,4.29,1.61-5.29,3.56-3.69v4.69Zm0.15-6.28h0l-4,4.15-8.49-18,4.43-2.48,13.55,10.7Zm-21.79,6h0l-6,.78,5.08-17.49,9.38,16.37ZM29.66,56.64L27,59.37l4.07-8.14Zm-5.43,4.88h-8l5.29-4.6Zm8.91-14.33,9.12-2L31,55.39Zm21,13.9L44.76,44.63l8.7-1.92L57,50.31ZM28.79,49.56L31.56,48,25.07,61l-2.83-4.76ZM19.91,57l-5.07,4.41-3.66-2.81Zm10.76,0.1L43,45.85,38,63,31.77,61.6Zm0.2,15.35L31,78.19l-2.08.67-1.06-7.18Zm3.25,8.23h-4l-0.74-.88,2.11-.68L33.76,80Zm-2.94-9.18-3.23-.78,3.7-8.08,5.81,1.35Zm7.55-7.36,4.81-.62-6.77,5.88Zm4.52,16.54h-3.9l1.21-2.1,2.28,1.09ZM38.83,72.1a0.51,0.51,0,0,0-.08.39l1.09,5.31-1.19,2.06-2.47-8.68,7.68-6.67L43.29,65.9Zm20,7.47,0.36,1.07H56.33l1.38-1.91Zm-1.68-5.43a0.49,0.49,0,0,0,0,.13v3.59l-1.59,2.21-0.66-1.89V68.6L59,66.86Zm2.27-8.53-4.54,1.9V62.46l2.83-10.73,4.47,9.51Zm7.49,14.17,0.49,0.86H63.5l0.86-2Zm-2.64-6.33-0.62,4.43-1,2.25-1.16-1.65-0.36-10,5.29-4.39Zm4.83-14.33-1.33,2V56.8l3.93-4.08Zm5.31-25.86-6.43-7.19,7.2,3h0l0.36,0.15Zm-6.89-8.46,4.39-6.88,1.28,1.81-0.57,5.77a0.5,0.5,0,0,0,.81.44l1.9-1.53,0.38,1.45L75,27.9Z">
  </path>
</svg>
